<?xml version="1.0" standalone="no"?>
<!DOCTYPE svg PUBLIC "-//W3C//DTD SVG 20010904//EN"
 "http://www.w3.org/TR/2001/REC-SVG-20010904/DTD/svg10.dtd">
<svg version="1.0" xmlns="http://www.w3.org/2000/svg"
 width="700.000000pt" height="700.000000pt" viewBox="0 0 700.000000 700.000000"
 preserveAspectRatio="xMidYMid meet">
<metadata>
Created by potrace 1.11, written by Peter Selinger 2001-2013
</metadata>
<g transform="translate(0.000000,700.000000) scale(0.100000,-0.100000)"
fill="#000000" stroke="none">
<path d="M3230 6920 c-186 -19 -216 -23 -235 -26 -11 -2 -47 -9 -80 -14 -349
-61 -652 -163 -970 -325 -442 -225 -806 -521 -1121 -911 -308 -383 -533 -837
-653 -1319 -26 -102 -37 -161 -66 -334 -3 -14 -7 -54 -11 -90 -3 -36 -9 -95
-14 -131 -9 -73 -6 -518 4 -595 23 -176 39 -279 52 -345 300 -1495 1556 -2618
3074 -2748 165 -14 670 -5 700 13 3 1 32 6 65 9 33 4 69 9 80 12 11 2 31 6 45
8 76 12 116 21 225 48 633 157 1187 478 1651 958 45 47 97 103 115 125 19 22
42 49 52 60 73 81 257 346 339 490 63 110 159 310 206 430 93 234 184 578 207
780 4 33 9 68 10 77 19 101 27 532 13 698 -47 549 -234 1100 -527 1555 -48 75
-155 227 -182 260 -191 231 -275 318 -492 513 -97 87 -331 252 -487 344 -316
186 -713 336 -1069 403 -88 17 -92 18 -211 34 -41 5 -93 13 -115 16 -65 10
-523 13 -605 5z"/>
</g>
</svg>
